<svg xmlns="http://www.w3.org/2000/svg" width="28.351" height="16.9" viewBox="0 0 28.351 16.9"><defs><style>.a{fill:#c7c7c7;}</style></defs><path class="a" d="M14.176,98.725c-5.417,0-10.329,2.964-13.954,7.777a1.122,1.122,0,0,0,0,1.34c3.625,4.819,8.537,7.783,13.954,7.783s10.329-2.964,13.954-7.777a1.122,1.122,0,0,0,0-1.34C24.5,101.689,19.592,98.725,14.176,98.725Zm.389,14.4a5.963,5.963,0,1,1,5.562-5.562A5.967,5.967,0,0,1,14.564,113.125Zm-.18-2.749a3.211,3.211,0,1,1,3-3A3.206,3.206,0,0,1,14.384,110.376Z" transform="translate(0 -98.725)"/></svg>